<svg width="59" height="59" viewBox="0 0 59 59" fill="none" xmlns="http://www.w3.org/2000/svg">
<path fill-rule="evenodd" clip-rule="evenodd" d="M42.2982 2.91011L42.2966 2.91245C38.4258 1.04602 34.0851 0 29.5 0C13.2076 0 0 13.2076 0 29.5C0 39.0404 4.52881 47.5231 11.554 52.9154L11.5471 52.9254L11.8563 53.1444C11.755 53.0687 11.6543 52.9923 11.554 52.9154L40.2367 11L41.062 11.5647L12.3644 53.504L12.358 53.5112C17.1893 56.9666 23.1072 59 29.5 59C45.7924 59 59 45.7924 59 29.5C59 18.153 52.5936 8.30235 43.2004 3.36765L43.1906 3.38143L43.1882 3.38018L14.8252 44.8284L14 44.2636L42.2966 2.91245C42.3207 2.92404 42.3446 2.93566 42.3687 2.94731L42.2982 2.91011ZM20.6338 21.4785H11.874V28.041H22.1133V31H8.16797V9.67188H22.0107V12.6602H11.874V18.5488H20.6338V21.4785ZM52.1777 27.6719L48.8965 43.7266L44.8682 27.6719H41.7627L37.6904 43.6973L34.3799 27.6719H30.7031L35.625 49H39.1846L43.3301 33.4287L47.3877 49H50.9326L55.8545 27.6719H52.1777Z" fill="#EBCCCD"/>
</svg>
